<?xml version="1.0" encoding="UTF-8"?>
<svg id="Layer_1" xmlns="http://www.w3.org/2000/svg" version="1.1" viewBox="0 0 40 40">
  <!-- Generator: Adobe Illustrator 30.3.0, SVG Export Plug-In . SVG Version: 2.1.3 Build 182)  -->
  <defs>
    <style>
      .st0 {
        fill: #231f20;
      }

      .st1 {
        fill: #fff;
      }

      .st2 {
        fill: #ea0029;
      }
    </style>
  </defs>
  <polygon class="st2" points="12.5 2 2 12.5 2 27.5 12.5 38 27.5 38 38 27.5 38 12.5 27.5 2 12.5 2"/>
  <path class="st1" d="M39.4,11.1L28.9.6l-.6-.6H11.7l-.6.6L.6,11.1l-.6.6v16.6l.6.6,10.5,10.5.6.6h16.6l.6-.6,10.5-10.5.6-.6V11.7l-.6-.6ZM38,27.5l-10.5,10.5h-14.9L2,27.5v-14.9L12.5,2h14.9l10.5,10.5v14.9Z"/>
  <path class="st1" d="M29.6,12.4s0,0-.1.1c0,0,0,0,0,0,0,0,0,0,0,.1,0,0-.1.2-.2.2,0,.1-.2,0-.2,0,0,0,0,0,.1,0,0,0,0,0,0,0,0,0,0,0,0,0,0,0,0,0,0,0,0,0,0,0,0,0,0,0,0,0,0,0,0,0,0,0-.1,0,0,0,0,0,0,0,0,0,0,0,0,0,0,0,0,0,0,0,0,0,0,.1-.2.2,0,0-.1,0-.2.1,0,0,0,0,0,0,0,0,0,0,0,0,0,0,0,0,.1,0,0,0-.1,0-.2.1,0,0,0,0,0,0h0c0,0,0,0,0,0,0,0-.2,0-.2.1,0,0,0,0,0,0h0s0,0,.2,0,0,0,0,0c0,0-.1.1-.2.2-.1,0-.3.2-.4.2,0,0,0,0,0,0,0,0,.1,0,.2.1,0,.1-.3.2-.5.3-.1,0-.2,0-.2,0,0,0,0,0,0,0,0,0,.1,0,.2,0,0,0,0,0,0,0,0,0,0,0,0,0,0,0-.1,0-.2,0-.2,0-.5.1-.5.1,0,0,0,0,0,0,0,0,.1,0,.2.2,0,0,0,0,0,0-.2.1-.5.2-.6.3,0,0,0,0,0,0,0,0,.1,0,.2.1,0,0,0,0,0,0-.2.1-.4.2-.6.2-.1,0-.2,0-.2,0,0,0,0,0,0,0,0,0,.1,0,.2.1,0,0,0,0,0,0-.4.3-.9.3-.9.3,0,0,.2,0,.3.2,0,0,0,0,0,0-.1,0-.3.1-.4.2-.3,0-.5,0-.5,0,0,0,0,0,0,0,0,0,0,0,.1.2,0,0-.1,0-.2.1-.3.1-.7,0-.7,0,0,0,0,0,0,0,0,0,0,0,.1.1,0,0,0,0,0,0-.3.2-1,.2-1,.2,0,0,.2,0,.3.2,0,0,0,0,0,0,0,0,0,0,0,0,0,0,0,0,0,0,0,0,0,.2,0,.2,0,0,0,0,0,0,0,0,0,0,.2-.1,0,0,.2,0,.4-.1h0s0,0,0,0c0,0,0,.2,0,.2,0,0,.3-.2.6-.2h0c0,.1,0,.2,0,.2,0,0,.3-.1.5-.1h0c0,0,0,.2,0,.2,0,0,.2,0,.4-.1,0,0,0,0,0,0,0,0,0,.2,0,.2,0,0,.2,0,.4-.1,0,0,0,0,0,0,0,0,0,0,0,0,0,0,0,.2,0,.2,0,0,.1,0,.2,0,0,0,.1,0,.2,0s0,0,.1,0c0,0,0,.2,0,.2,0,0,0,0,0,0,0,0,0,0,0,0,0,0,0,0,0,0,0,0,0,0,0,0h0c0,0,.1,0,.2,0,0,0,0,.1,0,.1,0,0,0,0,0,0h0s0,0,.1,0h.1c0,0,.1,0,.2,0,0,0,0,.1,0,.1,0,0,0,0,.1,0,0,0,.2,0,.2,0,0,0,0,0,0,0h0s0,0,0,0c0,0,0,0,.1,0,0,0,0,0,.1,0h0s0,0,0,0c0,0,0,0,0,0,0,0,0,0,0,0,0,0,0,0,.1,0,0,0,0,0,0,0,0,0,.3.1.4.1,0,0,0,0-.1,0,0,0,0,0,0,0,0,0-.1,0-.2,0h0s0,0-.1,0h0s0,0,0,0c0,0,0,0,0,0h0s0,0,0,0h0s0,0,0,0c0,0,0,0,0,0,0,0,0,0,0,0,0,0,0,0,0,0,0,0,0,0,0,0,0,0,0,0-.1,0,0,0,0,0,0,0,0,0,0,0,0,0,0,0,0,0,0,0-.1,0-.3,0-.3,0,0,0,0,0,0,0,0,0,0,0,0,0h0s0,0,0,0h0s0,0,0,0c0,0,0,0,0,0h0s0,0,0,0h0s0,0,0,0h0s0,0,0,0h0s0,0,0,0c0,0,0,0,0,0,0,0,0,0,0,0,0,0,0,0,0,0,0,0-.1,0-.2,0,0,0,0,0,0,0,0,0,0,0,0,0,0,0,0,0,0,0,0,0,0,0,0,0,0,0,0,0,0,0,0,0,0,0,0,0,0,0,0,0,0,.2-.1,0-.5,0-.5,0,0,0,0,0,0,0s0,0,0,.1c0,0-.2,0-.3,0-.1,0-.2,0-.2,0,0,0,0,0,0,0,0,0,0,0,0,.1h0c-.2,0-.5-.1-.5-.1,0,0,0,0,0,.2-.2,0-.5-.1-.5-.1,0,0,0,0,0,.2,0,0,0,0,0,0h0c-.3,0-.5-.2-.6-.2,0,0,0,0,0,0,0,0,0,0,0,.1-.1,0-.3,0-.4,0,0,0-.2,0-.2-.1h0s0,0,0,0c0,0,0,.1,0,.2-.3,0-.6-.3-.6-.3,0,0,0,0,0,.2,0,0-.2,0-.3,0-.2,0-.3-.2-.3-.2,0,0,0,0,0,0,0,0,0,0,0,.1h0c0,0,0,0-.2,0,0,0,0,0,0,0,0,0,0,0,0,0,0,0,0,0,0,0,0,0,0,0,0,0h0s0,0,0,0c0,0,.2,0,.3,0,0,0,0,0,0,0,0,0,0,0,0,0,0,0,0,0,.2,0,0,0,.1,0,.2,0,0,0,0,0,0,0,0,0,0,0,0,0,0,0,0,0,0,0,0,0,.2,0,.3.1,0,0,0,0,0,0,0,0,0,0,0,0,0,0,.1,0,.2,0,0,0,0,0,0,0,0,0,0,0,0,0,0,0,0,0,0,0,0,0,.2,0,.2.1,0,0,0,0,0,0,0,0,0,0,0,0,0,0,.2,0,.3.2,0,0,0,0,0,0,0,0,0,0,0,0,0,0,0,0,0,0,0,0,0,0,0,0,0,0,0,0,0,0,0,0,0,0,0,0,0,0,0,0,0,0,0,0,0,0,0,0,0,0,0,0,0,0,0,0,0,0,0,0,0,0,0,0,0,0,0,0,0,0,.1,0,0,0,0,0,0,0,0,0,0,0,0,0,0,0,0,0,0,0,0,0,.1,0,.1.1,0,0,0,0,0,0,0,0,0,0,0,0,0,0,0,0,0,0,0,0,0,0,0,0,0,0,0,0,0,0,0,0,0,0,0,0,0,0,0,0,0,0,0,0,0,0,0,0,0,0,0,0,0,0h0s0,0,0,0c0,0,0,0,0,0t0,0s0,0,0,0c0,0,0,0,0,.1,0,0,0,0,0,0,0,0,0,0,0,0,0,0,0,0,0,0,0,0,0,0,0,0,0,0,0,0-.1,0,0,0,0,0,0,0,0,0,0,0,0,0,0,0,0,0,0,0,0,0,0,0,0,0,0,0,0,0,0,0,0,0,0,0,0,0,0,0,0,0,0,0,0,0,0,0,0,0,0,0,0,0,0,0,0,0,0,0,0,0s0,0,0,0c0,0,0,0,0,0,0,0,0,0,0,0,0,0-.1,0-.1,0,0,0,0,0,0,0,0,0,0,0,0,0,0,0,0,0,0,0,0,0,0,0,0,0,0,0,0,0,0,0,0,0,0,0-.1,0,0,0,0,0,0,0,0,0,0,0,0,0,0,0,0,0,0,0h0s0,0,0,0c0,0,0,0,0,0,0,0,0,0,0,0,0,0,0,0,0,0,0,0,0,0,0,0,0,0,0,0,0,0,0,0,0,0,0,0,0,0,0,0,0,0s0,0,0,0c0,0,0,0,0,0,0,0,0,0,0,0,0,0-.1,0-.2-.1,0,0,0,0,0,0,0,0,0,0,0,0,0,0,0,0,0,0,0,0,0,0,0,0,0,0-.1-.2-.1-.2,0,0,0,0,0,0-.1,0-.2-.2-.2-.2,0,0,0,0,0,.1-.1,0-.2-.2-.2-.2h0s0,0,0,.1c-.2-.1-.2-.3-.2-.3,0,0,0,0,0,0,0,0,0,0,0,0-.1-.1-.2-.2-.2-.3,0,0,0,0,0,0,0,0,0,0,0,0,0,0,0,0,0,0,0,0,0,0,0,0-.1-.1-.2-.3-.2-.3,0,0,0,0,0,0,0,0,0,0,0,0,0,0,0-.1-.1-.2,0,0,0-.2,0-.2,0,0,0,0,0,0,0,0,0,0,0,0,0,0,0,0,0,0,0,0,0,0,0,0,0,0,0,0,0,0,0,0,0,0,0,0,0,0,0,0,0,0,0,0,0,0,0-.1,0,0,0,0,0,0,0,0,0,0,0,0,0,0,0,0,0-.1h0s0,0,0,0c0,0,0,0,0,0,0,0,0,0,0,0h0s0,0,0,0c0,0,0,0,0,0,0,0,0,0,0,0,0,0,0-.1,0-.2h0s0,0,0,0c0,0,0,0,0,0h0c0,0,0,0,0,0,0,0,0,0,0,0,0,0,0,0,0,0,0,1.5,0,3.4,1.1,5,0,0-.5.2-.5.2-.9-1.6-1-3.5-1-5,0,0,0,0,0,0,0,0,0,0,0,0,0,0,0,0,0,0h0s0,0,0,0c0,0,0,0,0,0,0,0,0,0,0,0,0,0,0,0,0,0,0,0,0,0,0,0,0,0,0,0,0,.1,0,0,0,0,0,0,0,0,0,0,0,0,0,0,0,0,0,.1,0,0,0,0,0,0,0,0,0,0,0,0,0,0,0,0,0,0,0,0,0,0,0,0,0,0,0,0,0,0,0,0,0,0,0,0,0,0,0,0,0,0,0,0,0,0,0,0,0,0,0,.1,0,.2,0,0,0,.1-.1.1,0,0,0,0,0,0,0,0,0,0,0,0,0,0,0,.1-.1.2,0,0,0,0,0,0,0,0,0-.1,0-.1,0,0,0,0,0,0,0,0,0,0,0,0h0s0,.1,0,.2c0,0,0,0-.1.1,0,0,0,0,0,0,0,0,0-.1,0-.1,0,0,0,.2-.2.3,0,0,0,0,0,0,0,0,0,0,0,0h0s0,.2-.2.2c0,0,0,0,0-.1h0s0,0,0,0c0,0,0,.1-.2.1,0,0,0,0,0,0,0,0,0,0,0,0,0,0,0,0,0,0,0,0,0,.1-.2.1,0,0,0,0,0,0,0,0,0,0,0,0,0,0,0,0,0,0,0,0-.2.2-.2.2,0,0,0,0,0,0,0,0,0,0,0,0,0,0,0,0,0,0,0,0,0,0,0,0s0,0,0,0c0,0,0,0,0,0,0,0,0,0,0,0,0,0,0,0,0,0,0,0,0,0,0,0,0,0,0,0,0,0,0,0,0,0,0,0h0s0,0,0,0c0,0,0,0,0,0,0,0,0,0,0,0,0,0,0,0,0,0,0,0,0,0,0,0,0,0,0,0,0,0,0,0,0,0,0,0,0,0,0,0,0,0,0,0,0,0,0,0,0,0,0,0,0,0h0s0,0,0,0c0,0,0,0,0,0,0,0,0,0-.2,0,0,0,0,0,0,0,0,0,0,0,0,0,0,0,0,0,0,0,0,0,0,0,0,0,0,0,0,0,0,0,0,0,0,0,0,0,0,0,0,0,0,0,0,0,0,0,0,0,0,0,0,0,0,0h0s0,0,0,0c0,0,0,0,0,0,0,0,0,0,0,0,0,0,0,0-.1,0,0,0,0,0,0,0,0,0,0,0,0,0,0,0,0,0,0,0,0,0,0,0,0,0,0,0,0,0,0,0,0,0,0,0,0-.1,0,0,0,0,0,0,0,0,0,0,0,0,0,0,0,0,0,0,0,0,0,0,0,0,0,0,0,0,0,0,0,0,0,0,0,0,0,0,0,0,0,0,0,0,0,0,0,0,0,0,0,0,0,0,0,0,0,0,0,0,0,0,0,0,0,0,0,0,0,0,0,0,0,0,0,0,0,0,0,0,0,0,.1-.1,0,0,0,0,0,0,0,0,0,0,0,0,0,0,0,0,0,0,0,0,0,0,0,0,0,0,0,0,0,0,0,0,.1,0,.1,0,0,0,0,0,0,0,0,0,0,0,0,0h0s0,0,0,0c0,0,0,0,0,0,0,0,0,0,0,0,0,0,0,0,0,0,0,0,0,0,0,0,0,0,0,0,0,0,0,0,0,0,0,0,0,0,0,0,0,0,0,0,0,0,0,0,0,0,0,0,0,0,0,0,0,0,.1,0h0c0,0,.2,0,.2,0,0,0,0,0,0,0,0,0,0,0,0,0,0,0,.1,0,.2-.1,0,0,0,0,0,0,0,0,0,0,0,0,0,0,0,0,0,0,.1,0,.3-.1.3-.1,0,0,0,0,0,0,0,0,0,0,0,0,.1,0,.3-.1.3-.1,0,0,0,0-.1,0h0c.2-.1.4-.1.4-.1,0,0,0,0-.1,0,0,0,0,0,0,0,0,0,.1,0,.2,0,0,0,0-.1,0-.1,0,0,0,0-.1,0,0,0,0,0,0,0-.1,0-.3.1-.4.1h0c0,0,0-.2,0-.2,0,0,0,0,0,0,0,0-.3.3-.6.3,0,0,0-.2,0-.2,0,0,0,0,0,0,0,0-.1.1-.3.2,0,0-.2,0-.2,0,0,0,0,0,0-.1,0,0,0,0,0,0,0,0,0,0-.1,0-.1,0-.3.1-.4.1h0s0,0,0,0c0,0,0-.1,0-.1,0,0-.3.2-.5.1,0,0,0,0,0,0,0,0,0,0,0,0,0,0-.3.1-.5.1,0,0,0-.2,0-.2,0,0,0,0,0,0-.1,0-.3,0-.4,0,0,0,0,0,0,0,0,0,0,0,0,0,0,0,0,0,0,0,0,0,0,0,0,0,0,0-.3,0-.5,0,0,0,0,0,0,0,0,0,0,0,0,0,0,0,0,0,0,0h0s0,0,0,0c0,0,0,0,0,0,0,0,0,0,0,0,0,0,0,0,0,0,0,0-.2,0-.2,0t0,0h0s0,0,0-.1c0,0,0,0,0,0,0,0,0,0,0,0h0s0,0,0,0h0s0,0,0,0c0,0,0,0,0,0h0s0,0,0,0c0,0,0,0,0,0h0s0,0,0,0c0,0,0,0,0,0,0,0,0,0,0,0,0,0,0,0,0,0,0,0-.1,0-.2,0,0,0,0,0,0,0,0,0,0,0,0,0,0,0,0,0,0,0,0,0,0,0-.1,0h0s0,0,0,0c0,0,0,0,0,0,0,0,0,0,0,0,0,0,0,0,0,0,0,0,0,0,0,0,0,0,0,0,0,0,0,0,0,0-.1,0s0,0,0,0c0,0-.1,0-.2,0,0,0,0,0,0,0,0,0,0,0,0,0,0,0,0,0-.1,0,0,0,.1,0,.2,0,0,0,.1,0,.2,0,0,0,.1,0,.2,0,0,0,0,0,0,0,0,0,0,0,0,0,0,0,0,0,0,0,0,0,0,0,0,0,0,0,0,0,0,0,0,0,0,0,0,0,0,0,0,0,0,0,0,0,0,0,.1,0,0,0,0,0,0,0,0,0,0,0,0,0,0,0,0,0,0,0,.1,0,.3,0,.3,0,0,0,0,0,0,0h0s0,0,0,0c0,0,0,0,0,0,0,0,0,0,.1,0h0s0,0,0,0h0c0,0,.1,0,.2,0,0,0,0,0,0,0,0,0,0,0,0,0h0s0,0,0,0c0,0,0,0,0,0h0c0,0,.1,0,.2,0,0,0,0,0,0,0,0,0,0,0,0,0,0,0,0,0,0,0,0,0,0,0,0,0h0s0,0,0,0c0,0,0,0,0,0,0,0,.1,0,.2,0,0,0,0,0,0,0,.1,0,.3,0,.3,0,0,0,0,0,0,0,0,0,0,0,0,0,0,0,0,0,0,0,0,0,.2,0,.3,0,.1,0,.2,0,.2,0,0,0,0,0,0-.2.1,0,.3,0,.4,0,0,0,.2,0,.2,0,0,0,0,0,0,0,0,0,0,0,0,0,.2,0,.5.1.5.1,0,0,0,0,0-.1,0,0,0,0,0,0h0c.1,0,.2,0,.3,0h0s0,0,0,0c.1,0,.2.1.3.1,0,0,0,0,0,0,0,0,0,0,0-.1.4,0,.6.2.6.2,0,0,0,0,0-.2,0,0,0,0,0,0,0,0,0,0,0,0,0,0,0,0,0,0,0,0,0,0,0,0,0,0,0,0,.1-.1,0,0,.1,0,.1,0,0,0-.5,0-.8,0,0,0,0,0-.1,0,0-.1.2-.2.2-.2,0,0-.1,0-.3,0s-.2,0-.3,0c0,0-.2,0-.3-.1,0,0,0,0,0,0,0,0,.1-.1.1-.2,0,0,0,0,0,0,0,0-.4.1-.9-.2,0-.1.3-.2.3-.2,0,0-.2,0-.4,0-.2,0-.3,0-.5-.2h0s0,0,0,0c0,0,0,0,0,0h0s0,0,0,0c0,0,.1,0,.1,0,0,0-.1,0-.3,0,0,0-.2,0-.3,0,0,0-.2,0-.2-.1,0-.1.2-.2.2-.2,0,0-.4,0-.7-.3,0,0,0,0,0,0,0,0,0,0,0,0,0,0,.1,0,.1,0,0,0-.5,0-.7-.3,0,0,.1,0,.2-.1,0,0,0,0,0,0,0,0-.2,0-.4-.2-.1,0-.2-.1-.3-.2,0,0,0,0,0,0,0,0,.1,0,.1,0h0s0,0,0,0c-.1,0-.3-.1-.4-.2,0,0-.1-.1-.2-.2h0s0,0,.1,0c0,0,0,0,0,0,0,0,0,0,0,0h0s0,0,0,0h0s0,0,0,0c0,0,0,0,0,0,0,0,0,0,0,0,0,0,0,0,0,0,0,0,0,0,0,0h0s0,0,0,0c0,0,.2-.1.2-.1,0,0-.1,0-.2-.1,0,0-.1-.1-.2-.2,0,0,.1,0,.1,0,0,0,0,0,0,0,0,0,0,0-.1,0,0,0,0,0,0,0,0,0,0,0,0,0,0,0,0,0,0,0,0,0,0,0,0,0,0,0,0,0,0,0,0,0,.1,0,.1,0,0,0,0,0-.1,0,0,0,0,0-.1,0h0c0,0-.1-.1-.2-.2,0,0-.1-.2-.2-.3h0s0,0,0,0c.1,0,.2,0,.3,0,.1,0,.2,0,.3,0h0s0,0,0,0c0,0,.1.1.1.1,0,0,0,0,0,0,0,0,0,0,0,0,0,0,0,0,0,0,0,0,0,0,0,0,0,0,0,0,0,0,0,0,0,0,0,0,0,0,0,0,0,0,0,0,0,0,0,0,0,0,0,0,.1,0,0,0,0,0,0,0,0,0,0,0,0-.1,0,0,0,0,0,0,0,0,0,0,.1,0,.1,0,.2.2.2.2,0,0,0-.1,0-.2,0,0,.1,0,.2,0h0s0,0,0,0c0,0,0,0,0,0,0,0,0,0,0,0,0,0,0,0,0,0h0s0,0,0,0c0,0,0,0,0,0h0c0,0,0-.1,0-.1,0,0,.1,0,.2.1.1,0,.2.2.3.3,0,0,0,0,0,0,0,0,0,0,0-.1,0,0,0,0,0-.1.2,0,.6.5.6.5,0,0,0-.2,0-.3,0,0,.2.1.3.2h0s0,0,0,0c.1.1.3.3.3.3,0,0,0,0,0-.1,0,0,0,0,0-.1.1,0,.2.2.3.3.2.2.3.3.3.3,0,0,0-.1,0-.3,0,0,0,0,0,0,.2,0,.3.2.4.4.1.1.2.2.2.2,0,0,0,0,0-.1,0,0,0-.1,0-.2,0,0,0,0,0,0,.4.3.6.7.6.7,0,0,0,0,0-.2,0,0,0-.1,0-.2,0,0,.2.1.2.2.3.3.3.6.3.6,0,0,0,0,0-.1,0,0,0-.1.1-.2.2.1.3.3.4.5,0,.2.1.3.1.3,0,0,0-.2,0-.3.3.2.5.8.5.8,0,0,0,0,0-.1,0,0,0-.1,0-.2h0s0,0,0,0h0s0,0,.1.1h0s0,0,0,.1c0,0,0,0,0,0,0,0,0,0,0,.1,0,0,0,0,0,0,0,0,0,0,0,0,0,0,0,0,0,0,0,0,0,.1,0,.1,0,0,0,0,0,0,0,0,0,0,0,0,0,0,0,0,0,0t0,0c0,0,.2.2.2.3,0,0,0,0,0,0,0,0,0,0,0,0,0,0,.2,0,.2,0,0,0,0,0,0,0,0,0,0,0-.2-.2,0,0-.1-.2-.2-.3,0,0,0,0,0,0,0,0,0,0,0,0,0-.1-.1-.3-.2-.4,0,0,.1,0,.2,0,0,0,0,0,0,0,0,0,0,0,0,0-.2-.2-.4-.4-.4-.7,0-.1,0-.2,0-.2,0,0,0,0,0,0,0,0,0,0,0,0,0,0,0,0,0,0,0,0,0,0,0,0,.1,0,.3.1.3.1,0,0-.2-.3-.4-.6,0-.1,0-.3,0-.4h0c.1,0,.3,0,.3,0,0,0-.3-.3-.4-.7,0,0,0-.2,0-.3,0,0,0,0,0,0,.1,0,.3,0,.3,0,0,0-.3-.3-.4-.8,0,0,0-.1,0-.2.2,0,.4.2.4.2,0,0-.4-.5-.3-1.1,0,0,.2,0,.3,0,0,0,0,0,.1,0,0,0-.2-.3-.2-.6,0-.1,0-.2,0-.3,0,0,0,0,0,0,.1,0,.2.1.2.1,0,0-.2-.5-.2-.9,0,0,.2,0,.2,0,0,0,0,0,0,0,0,0-.3-.6-.2-.9h0c0,0,.1,0,.2,0,0,0,.1,0,.1,0,0,0-.1-.4-.1-.7h0c0,0,0-.1,0-.2.1,0,.2,0,.3.1,0,0,0,0,0,0,0,0,0,0,0,0,0-.2,0-.3,0-.5,0-.1,0-.2,0-.3h0c.1,0,.2.1.2.1,0,0,0,0,0,0h0s0,0,0-.1h0s0,0,0,0c0,0,0,0,0-.1,0,0,0,0,0,0h0c0-.1,0-.1,0-.2,0,0,0,0,0-.1h0c0,0,0-.1,0-.1h0c.1,0,.2,0,.2,0,0,0,0,0,0-.2,0-.1,0-.3,0-.4,0,0,0,0,0,0,0,0,0,0,0,0,0,0,0,0,0,0,0,0,0,0,0,0s0,0,0,0c0,0,0,0,0-.1,0,0,0,0,0,0h0s0,0,0-.1c0,0,0,0,0,0,0,0,0,0,0,0,0,0,0,0,0,0,0,0,0,0,0,0,0,0,0,0,0,0,0,0,0-.1,0-.2,0,0,0,0,0,0,0,0,0-.2.1-.3,0-.1,0-.2.1-.4,0,0,0,0,0,0,0,.1,0,.2.1.4,0,.1,0,.3.1.3,0,0,0,0,0,0,0,.1,0,.2,0,.3,0,0,0,0,.1,0,0,0,0,0,0,0,0,0,0,0,0,0h0s0,0,0,.1c0,0,0,0,0,0,0,0,0,0,0,0,0,0,0,0,0,.1h0s0,0,0,0c0,0,0,0,0,0,0,0,0,0,.2,0,0,.1,0,.3,0,.5,0,0,0,.1,0,.1,0,0,0,0,0,0,0,0,.1,0,.2,0,0,0,0,0,0,.1h0s0,0,0,.1c0,0,0,0,0,0s0,0,0,0h0c0,.1,0,.2,0,.3,0,0,0,0,0,0h0s0,0,.2-.1c0,0,0,.2,0,.3,0,.2,0,.3,0,.5,0,0,0,0,0,0,0,0,0,0,0,0,0,0,.1,0,.2,0,0,0,0,0,0,.2,0,.3-.1.8-.1.8,0,0,.2-.1.3-.1,0,.1,0,.3,0,.4,0,.3-.2.5-.2.5,0,0,0,0,0,0,0,0,.1,0,.2,0,0,.4-.2.9-.2.9,0,0,.1-.1.3-.1,0,0,0,0,0,0,0,.4-.2.9-.2.9,0,0,.2-.1.4-.2,0,.1,0,.2,0,.3,0,.3-.2.6-.3.7,0,0,0,0,0,0,0,0,.1,0,.2-.1,0,0,.1,0,.1,0,0,0,0,0,0,.1,0,.2,0,.3-.1.4-.1.3-.3.4-.3.4,0,0,.2,0,.4,0,0,.5-.4,1-.5,1,0,0,0,0,0,0,0,0,.1,0,.2,0,0,.2-.1.5-.2.7-.1.2-.2.3-.2.4,0,0,.2-.1.3-.1s0,0,0,0c0,0,0,0,0,0,0,0,0,0,0,0,0,0,0,0,0,0,0,0,0,.1,0,.2,0,.2-.2.5-.4.7,0,0,0,0,0,0h0s.2,0,.3,0h0c0,.2,0,.3-.2.4,0,0,0,0,0,0,0,0,0,0,0,0,0,0-.1.2-.2.3,0,0-.2.2-.2.2,0,0,0,0,.2,0,0,0,0,0,0,0,0,0,0,0,0,0,0,0,0,0,0,0,0-.1.1-.2.2-.3,0,0,0,0,0,0,0,0,.1.1.1.1,0,0,0,0,0-.1,0,0,0,0,0,0,0,0,0,0,0,0,0,0,0,0,0,0,0,0,0,0,0-.1,0,0,0,0,0,0,0,0,0,0,0-.1,0,0,0-.1.1-.1,0,0,0,0,0,0,0,0,0,0,0,0,0,0,0,0,0,0,0,0,0,0,0,.1h0c0,0,0,.2,0,.2,0,0,0-.3.2-.5,0-.1.2-.2.3-.3h0c0,0,0,.2,0,.2,0,0,0,0,0,0,0,0,0-.2.1-.4,0,0,0-.1.1-.2,0,0,0,0,0,0,0,0,.1-.1.2-.2,0,0,0,0,0,0,.1.1.1.3.1.3,0,0,0,0,0,0,0,0,0,0,0,0,0,0,0,0,0,0,0-.2.2-.4.5-.6,0,.1,0,.4,0,.4,0,0,0-.1.1-.3,0-.2.2-.3.4-.5,0,.1,0,.3,0,.3,0,0,.2-.4.5-.6,0,0,0,0,0,0,0,.1,0,.3,0,.3,0,0,0-.1.2-.2.1-.1.2-.3.4-.4,0,.1,0,.3,0,.3,0,0,0-.1.2-.2.1-.1.2-.3.4-.3,0,0,0,.2,0,.3,0,0,0,0,0,0,0,0,0-.1.2-.2.1-.1.3-.2.4-.3,0,0,0,.2,0,.2,0,0,0,0,0,0h0c0-.1.2-.2.3-.3,0,0,.2,0,.2-.1,0,0,0,.1,0,.1s0,0,0,0c0,0,0,0,0,0,0,0,.1,0,.2-.1,0,0,0,0,0,0,0,0,0,0,0,0,0,0,0,0,0,0,0,0,.1,0,.2-.1,0,0,0,.2,0,.2,0,0,0,0,0,0,0,0,.3-.2.4-.2,0,0,0,0,0,0,0,0,0,.1,0,.1,0,0,0,0,0,0,0,0,0,0,.1,0,0,0,0,0,0,0,0,0,0,0,0,0,0,0,0,0,0,0,0,0,0,0,0,0,0,0,0,0,0,0,0,0,0,0,0,0,0,0,0,0,0,0,0,0,0,0,0,0,0,0,0-.1.1-.2,0,0,0,0,0,0h0c0,0,.2,0,.3,0,.1,0,.2,0,.3,0h0,0Z"/>
  <polygon class="st0" points="36.4 26.4 36.4 26.8 26.8 36.4 13.2 36.4 3.6 26.8 3.6 26.4 36.4 26.4"/>
  <g>
    <path class="st1" d="M13.2,29.3h-1.4v-1.4h4.2v1.4h-1.4v4.5h-1.4v-4.5Z"/>
    <path class="st1" d="M20.1,31.3h-1.8v2.5h-1.4v-6h1.4v2h1.8v-2h1.5v6h-1.5v-2.5Z"/>
    <path class="st1" d="M26.9,31.7l1.1.8c-.7,1-1.6,1.4-2.6,1.4-1.7,0-3.1-1.4-3.1-3.1s1.4-3.1,3.1-3.1,1.9.5,2.6,1.5l-1.2.9c-.5-.6-.9-.9-1.5-.9-.9,0-1.7.7-1.7,1.7s.7,1.7,1.7,1.7,1-.2,1.4-.8Z"/>
  </g>
  <path class="st1" d="M27,36.8h-14c0-.1-9.7-9.9-9.7-9.9v-13.9L13,3.2h13.9l9.9,9.9v13.9h-.1c0,.1-9.7,9.9-9.7,9.9ZM13.4,36h13.3l9.4-9.4v-13.3L26.6,4h-13.3L4,13.4v13.3l9.4,9.4Z"/>
</svg>