<?xml version="1.0" encoding="UTF-8"?>
<svg id="Layer_1" xmlns="http://www.w3.org/2000/svg" width=".556in" height=".556in" version="1.1" viewBox="0 0 40 40">
  <!-- Generator: Adobe Illustrator 30.3.0, SVG Export Plug-In . SVG Version: 2.1.3 Build 182)  -->
  <polygon points="12.544 2 2 12.544 2 27.456 12.544 38 27.456 38 38 27.456 38 12.544 27.456 2 12.544 2" fill="#ea0029"/>
  <path d="M39.414,11.13L28.87.586l-.586-.586H11.716l-.586.586L.586,11.13l-.586.586v16.569l.586.586,10.544,10.544.586.586h16.568l.586-.586,10.544-10.544.586-.586V11.716l-.586-.586ZM38,27.456l-10.544,10.544h-14.912L2,27.456v-14.912L12.544,2h14.912l10.544,10.544v14.912Z" fill="#fff"/>
  <path d="M29.618,12.403c-.034.045-.067.089-.101.134-.003.004-.006.007-.008.011-.027.036-.053.071-.081.106-.066.088-.134.175-.177.225-.098.114-.236.089-.236.089,0,0,.07.035.102.061-.003.008-.006.017-.011.024-.001.003-.004.006-.007.008-.014.021-.032.043-.056.064-.006.006-.013.011-.018.017-.013.01-.025.021-.039.032-.042.032-.085.06-.13.087-.038.021-.066.036-.066.036,0,0,.032.018.067.04.018.013.036.025.053.038-.036.056-.099.11-.165.159-.059.045-.119.082-.163.109-.042.024-.071.039-.071.039,0,0,.02.01.046.024.034.02.08.047.117.08-.038.046-.101.099-.17.149-.017.013-.032.024-.049.035l-.075.05h-.001c-.082.053-.161.099-.205.124-.013.007-.024.017-.038.02h0s.099.021.176.098c.001.001.004.003.006.006-.039.059-.106.117-.182.169-.117.084-.253.152-.374.205-.031.014-.05.021-.05.022,0,0,.116.061.208.135-.082.102-.295.208-.459.278-.119.052-.214.084-.214.084,0,0,.021.01.05.025.047.024.114.06.168.098.01.008.02.015.028.022-.02.022-.045.043-.071.063-.047.036-.105.068-.165.096-.216.098-.468.144-.469.144,0,0,.003.001.008.004.031.017.137.075.201.163-.017.014-.035.027-.054.039-.216.147-.514.226-.637.254-.035.008-.056.013-.056.013,0,0,.13.049.221.149.001.001.003.003.004.006-.176.138-.426.212-.596.25-.108.024-.182.034-.182.034,0,0,.003,0,.007.003.029.01.138.05.225.131.015.014.029.029.042.045-.405.289-.899.261-.899.261,0,0,.209.081.3.182.003.001.004.003.007.006-.131.081-.262.13-.381.159-.271.066-.483.029-.514.024.013.01.054.036.098.078.043.042.091.098.114.166-.07.047-.145.082-.223.109-.341.112-.706.034-.709.034.001,0,.028.017.063.042.035.027.08.061.116.103.01.01.018.021.027.031-.297.216-.963.173-.965.173.001,0,.198.077.253.177-.032.018-.056.031-.078.042-.001.001-.004.003-.006.003-.025.013-.047.022-.077.032.021.091-.02.186-.028.205.003-.004.011-.011.024-.021.028-.025.082-.066.156-.106.096-.05.223-.098.383-.105h0s.001,0,.001,0c-.01.085-.087.2-.098.215.022-.015.262-.187.571-.187h.022c-.007.102-.077.19-.084.2.02-.01.299-.149.535-.131h.001c-.011.087-.063.162-.067.168.014-.006.23-.096.438-.108.031-.003.06-.003.089,0-.003.082-.049.163-.053.17.022-.01.211-.089.374-.102.02-.001.036-.001.054-.001.027,0,.052.003.075.01-.02.067-.08.166-.082.17.014-.003.117-.029.232-.046.059-.01.12-.015.175-.015.039,0,.074.003.102.013-.024.074-.064.151-.064.152.007-.001.038-.007.081-.014.027-.004.052-.007.08-.01.011-.001.024-.003.036-.004.021-.001.04-.003.06-.004h.047c.067,0,.131.006.179.025-.013.074-.061.124-.063.126.008-.003.018-.003.028-.003h.007c.035-.003.089-.007.148-.008h.102c.06.001.116.007.155.02-.015.057-.05.117-.052.119.007-.001.059-.007.126-.007.07-.001.154.004.211.028-.013.039-.036.088-.038.088h.001s.02-.001.042-.003c.036-.003.071-.004.108-.001.042.001.082.008.112.022h.001s.003.001.004.003c.004.001.01.003.014.006-.008.024-.028.06-.032.07.013-.011.06-.046.126-.042.011,0,.024.003.036.006.096.027.334.112.383.128-.038.014-.074.027-.113.04-.029.01-.057.02-.085.029-.07.024-.141.047-.183.059h-.001c-.049.014-.089.004-.119-.008l-.003-.003c-.013-.006-.024-.013-.031-.017-.006-.004-.008-.007-.01-.007l.017.034c.006.013.011.025.015.035h-.001s-.008.007-.014.01c-.003,0-.006,0-.007.001-.017.007-.035.013-.056.015-.006.001-.013.001-.02.003-.01,0-.02.001-.029.003-.038.001-.074.001-.112-.001-.018-.001-.032-.003-.038-.003-.001-.001-.003-.001-.006-.001,0,0,.025.05.038.088-.113.047-.336.022-.336.022,0,0,.017.028.032.064.008.017.015.035.02.053h-.001c-.021.007-.049.013-.08.015h-.003c-.02.003-.04.004-.061.004-.017.001-.032.001-.049.001h-.064c-.025-.001-.05-.003-.074-.004h-.004c-.029-.001-.054-.003-.073-.004h-.001c-.01-.001-.021.001-.029-.003l.008.008s0,.001.001.003c.004.006.01.013.017.024.001.001.001.003.003.004.014.021.028.05.034.085-.057.024-.141.029-.222.025-.022,0-.045-.001-.067-.004-.008,0-.017-.001-.025-.003-.029-.003-.059-.006-.087-.01-.043-.007-.073-.013-.081-.014,0,0-.001-.001-.003-.001,0,0,.001.001.001.003.003.004.04.078.064.151-.145.045-.508-.05-.508-.05,0,0,.017.028.035.063s.038.075.047.109c-.089.024-.211.001-.313-.028-.106-.029-.191-.067-.191-.067,0,0,.017.028.031.068.011.031.021.067.022.103h-.018c-.23.01-.51-.11-.51-.11,0,.001.056.08.067.17-.243.018-.536-.133-.538-.133.001,0,.059.071.08.162.003.013.006.025.006.039h-.021c-.302,0-.542-.168-.571-.188.004.008.024.036.043.073.022.043.047.096.053.142-.142-.004-.261-.043-.352-.088-.092-.043-.155-.094-.187-.121h0c-.013-.011-.021-.018-.025-.022.008.021.052.123.027.215-.309.003-.568-.269-.57-.269,0,.001.043.092.047.175-.087.003-.187-.029-.281-.073-.161-.074-.3-.179-.317-.19.004.004.01.013.015.024.021.035.053.098.057.149v.018c-.077-.008-.094-.007-.18-.036-.011-.003-.021-.008-.031-.013-.014-.006-.028-.011-.042-.017-.025.024-.05.038-.05.038.001,0,.008-.001.018-.001h.001c.011-.001.025-.003.046-.003.066.001.175.018.282.091-.022.024-.064.045-.092.056-.018.007-.031.011-.031.011,0,0,.071,0,.159.025.06.017.126.045.187.094-.01.011-.022.021-.035.029,0,.001-.001.001-.001.001-.036.024-.073.034-.074.034.001,0,.191.032.299.124-.038.039-.091.056-.091.056,0,0,.008.003.02.006.04.011.142.042.225.096.014.01.029.02.042.031-.031.039-.085.061-.085.061,0,0,.027.007.063.018.066.021.163.059.208.113-.029.021-.077.042-.092.049-.003.001-.007.003-.007.003,0,0,.204.082.257.154-.01.006-.018.011-.027.017-.027.017-.05.028-.057.032,0,.001.017.008.039.021.017.008.034.018.052.028.003.001.006.004.008.006.011.007.022.014.034.022.018.011.034.024.049.036.001.001.001.003.003.003.018.017.035.032.045.049-.006.006-.011.01-.017.013-.028.02-.056.025-.056.025,0,0,.064.039.123.084.006.003.008.006.014.01.027.021.052.043.066.063-.027.022-.064.038-.064.038,0,0,.113.066.149.127-.02.014-.047.028-.047.028,0,0,.011.007.027.017.015.011.031.022.046.035.007.006.013.01.018.017.001,0,.003.001.004.003.008.01.015.018.021.027,0,.001.001.003.003.004.001.003.003.006.004.008-.013.01-.04.022-.04.022h.008c.006,0,.013,0,.022.003.018.004.04.013.059.036t.003.003c.015.021.039.054.063.088.024.035.047.07.071.103-.003,0-.007-.001-.01-.003-.014-.004-.028-.008-.042-.013-.008-.003-.015-.006-.022-.007-.015-.006-.031-.01-.046-.015-.042-.013-.082-.027-.106-.035-.003-.001-.004-.003-.006-.004-.049-.022-.057-.071-.057-.071,0,0-.006.031-.01.045-.003,0-.007,0-.01-.001-.001,0-.003,0-.004-.001-.01-.001-.021-.006-.032-.011-.001-.001-.004-.003-.007-.004-.006-.004-.011-.007-.018-.011-.017-.011-.034-.024-.049-.038-.01-.008-.015-.013-.018-.015-.001-.001-.003-.001-.003-.003,0,0-.006.032-.014.054-.004-.001-.01-.004-.015-.006-.053-.02-.113-.07-.138-.091-.007-.006-.011-.01-.011-.01,0,0-.001.013-.006.031-.001.013-.006.028-.011.042-.024-.008-.052-.025-.08-.045-.006-.003-.01-.007-.014-.01-.04-.029-.08-.063-.101-.08-.001-.001-.001-.003-.003-.003-.001-.001-.003-.003-.004-.004-.006-.004-.008-.008-.008-.008v.015c0,.011-.001.025-.006.043-.003.007-.004.015-.008.022-.02-.004-.039-.015-.06-.028-.001,0-.003-.001-.003-.001-.017-.011-.034-.022-.05-.036-.011-.008-.021-.017-.031-.027-.003-.001-.006-.003-.007-.006-.015-.014-.029-.027-.043-.04-.018-.018-.029-.031-.031-.032,0,.001-.001.003-.001.004-.001.01-.008.052-.021.089-.052-.018-.123-.089-.172-.142-.029-.032-.05-.059-.05-.059,0,.001-.003.035-.01.07-.003.014-.007.028-.011.04-.025-.01-.05-.029-.074-.052-.073-.068-.13-.169-.13-.169,0,0-.006.059-.034.099-.116-.073-.209-.233-.211-.235,0,0,0,.056-.027.103-.121-.077-.207-.249-.207-.25v.008c0,.02-.003.074-.029.116-.158-.11-.214-.295-.214-.296,0,.001-.001.042-.01.082-.004.02-.011.039-.02.054-.133-.106-.17-.244-.18-.29-.003-.008-.003-.015-.003-.015,0-.001-.001-.001-.001-.001,0,.001-.007.042-.032.078-.007.013-.017.024-.029.034-.145-.106-.173-.323-.175-.324,0,0-.007.035-.022.07-.004.01-.01.02-.015.028-.052-.035-.094-.103-.126-.169-.04-.084-.064-.162-.064-.163,0,.001,0,.008-.001.02-.001.027-.01.074-.031.098-.034-.031-.04-.036-.073-.081-.003-.004-.006-.011-.01-.017-.006-.008-.01-.017-.015-.025-.007-.013-.013-.025-.02-.039-.001-.006-.004-.011-.007-.017-.015-.039-.028-.081-.035-.121-.006-.029-.007-.047-.007-.05,0,0-.022.046-.066.061-.032-.039-.056-.081-.074-.121l-.008-.021c-.006-.014-.011-.027-.014-.039-.004-.01-.007-.018-.008-.027-.007-.024-.011-.045-.014-.061v-.003s-.001-.001-.001-.003c-.004-.028-.006-.046-.006-.046,0,0-.014.071-.064.078-.042-.063-.066-.127-.08-.184v-.004c-.006-.02-.008-.039-.011-.056,0-.001-.001-.004-.001-.007v-.007c-.007-.047-.006-.078-.006-.078,0,0-.003.011-.01.024-.007.013-.017.027-.031.038-.046,1.452.004,3.386,1.141,4.994.045.018-.451.233-.48.218-.85-1.562-.991-3.493-.969-4.957-.008.015-.017.031-.028.046-.053-.011-.064-.085-.066-.085,0,0-.001.018-.007.046v.004s-.001.003-.001.004c-.004.018-.01.039-.017.063-.003.01-.007.02-.01.028-.006.014-.011.027-.017.04-.004.008-.007.015-.011.022-.02.042-.047.087-.084.126-.039-.015-.06-.057-.066-.067,0,.003-.003.022-.01.053-.01.043-.024.085-.042.126-.003.007-.006.013-.01.02-.007.014-.014.027-.021.039-.006.01-.011.018-.018.027-.003.006-.007.013-.011.018-.035.045-.043.05-.08.081-.011-.014-.018-.035-.022-.056,0,0-.001,0-.001-.001-.006-.034-.006-.066-.006-.067,0,.001-.035.106-.092.202-.034.057-.075.112-.123.142-.013-.021-.021-.047-.028-.067-.006-.022-.008-.039-.008-.039,0,0-.024.135-.106.247-.025.034-.054.064-.092.089-.043-.038-.057-.103-.061-.119,0,.001-.001.007-.003.015-.001,0-.001.001-.001.001h0c-.008.035-.032.108-.089.184-.029.039-.066.078-.114.114-.001-.006-.004-.011-.006-.017-.02-.052-.018-.13-.018-.13,0,0-.066.194-.239.306-.004-.007-.006-.015-.01-.024-.014-.035-.017-.073-.017-.094v-.017s-.098.18-.229.257c-.022-.043-.024-.091-.024-.105v-.006s-.032.047-.081.105c-.04.047-.094.102-.152.135-.011-.018-.018-.039-.022-.057-.008-.028-.01-.05-.01-.05-.001,0-.029.047-.073.098-.042.052-.098.108-.152.127-.003-.007-.006-.017-.007-.027-.003-.018-.006-.036-.008-.052-.001-.021-.003-.038-.003-.038,0,0-.152.176-.243.202-.003-.007-.004-.015-.006-.024-.01-.039-.014-.077-.014-.077,0,0-.001,0-.001.001-.001,0-.014.013-.032.031-.015.015-.032.029-.05.043-.001.001-.003.003-.004.004-.013.01-.024.02-.036.028-.017.014-.035.025-.053.035-.001.001-.003.001-.004.003-.022.013-.045.022-.064.027-.02-.042-.011-.085-.011-.085h-.001s-.02.017-.046.038c-.001.001-.003.001-.004.003-.001.001-.003.003-.004.003-.011.008-.021.017-.034.025-.007.006-.014.01-.022.015-.004.003-.007.006-.013.008-.008.006-.017.011-.025.017-.008.006-.015.01-.024.014-.004.001-.007.004-.011.006-.015.008-.031.017-.045.021h0c-.006-.015-.008-.032-.01-.046-.004-.018-.004-.034-.004-.034-.001.001-.081.07-.151.098-.01.004-.02.007-.029.008,0-.003-.001-.006-.001-.008-.007-.022-.01-.049-.01-.049,0,0-.011.008-.025.02-.017.013-.034.025-.052.036-.007.004-.015.008-.022.011-.001.001-.004.003-.006.004-.013.006-.024.008-.034.011-.001,0-.003.001-.004.001h-.011c-.004-.015-.008-.047-.008-.047,0,0-.011.043-.054.067-.006.003-.008.007-.015.01-.027.008-.071.021-.114.034-.014.004-.027.007-.04.011-.02.006-.039.01-.054.014-.008.003-.017.006-.025.007-.003.001-.006.003-.008.003.001-.001.003-.003.003-.004.027-.035.053-.071.081-.108.025-.035.052-.068.068-.089.04-.047.098-.036.098-.036,0,0-.029-.015-.042-.025.001-.004.003-.007.004-.01.001-.001.003-.003.003-.004.007-.008.014-.018.024-.028.001,0,.003-.001.004-.003.007-.006.013-.011.02-.017.018-.014.038-.027.057-.038.007-.004.014-.008.018-.01.001-.001.003-.003.004-.003,0,0-.01-.007-.022-.015-.01-.006-.018-.011-.027-.017.025-.039.08-.078.12-.103.025-.015.043-.025.045-.025-.001,0-.02-.01-.042-.024-.008-.006-.018-.011-.027-.02.015-.02.043-.042.074-.064.004-.003.008-.007.014-.01.064-.045.134-.084.134-.084,0,0-.025-.006-.052-.022-.008-.006-.017-.011-.024-.02h0c.011-.018.029-.034.049-.05.001-.001.003-.001.004-.003.015-.013.034-.025.052-.038.013-.007.025-.015.039-.022.001-.001.003-.001.006-.003.02-.011.039-.021.059-.031.022-.01.036-.017.04-.018,0,0,.001,0,.001-.001,0,0-.001,0-.003-.001-.007-.004-.049-.027-.084-.053.022-.028.067-.056.114-.081h.001c.078-.042.162-.071.162-.071,0,0-.043-.021-.08-.043-.008-.006-.017-.011-.022-.015.046-.053.141-.088.211-.108.046-.014.08-.021.081-.021-.001,0-.036-.017-.067-.046-.007-.007-.015-.014-.021-.022.114-.091.309-.128.309-.128,0,0-.011-.004-.025-.011-.02-.011-.046-.027-.068-.052.119-.095.321-.12.321-.12,0,0-.071-.021-.113-.073h0c.166-.121.37-.11.371-.11-.001-.001-.07-.027-.112-.061-.006-.006-.011-.01-.015-.015.071-.045.142-.067.204-.077.018-.067.066-.135.066-.135,0,0-.049.038-.124.085-.025.017-.053.034-.082.05-.116.066-.261.128-.381.128h-.011c.004-.073.038-.151.046-.17.001-.003.001-.004.001-.004,0,0-.261.272-.57.269-.025-.092.018-.193.027-.214-.004.003-.013.011-.025.021-.045.039-.147.117-.3.168-.07.022-.151.039-.239.042.004-.043.028-.094.05-.137.021-.038.042-.068.046-.078-.011.008-.06.042-.134.078-.105.052-.257.11-.434.11h-.024c.001-.027.008-.053.017-.077.025-.071.067-.124.068-.124-.001,0-.295.151-.538.133.003-.031.013-.059.022-.084.017-.043.039-.077.043-.084-.017.006-.3.124-.526.108.003-.078.045-.156.052-.17-.007.003-.039.017-.084.032-.108.039-.296.094-.419.061.003-.011.007-.022.013-.035.013-.031.029-.064.043-.089.015-.028.027-.047.027-.047,0,0-.018.004-.046.011-.099.024-.332.071-.451.042-.004,0-.008-.001-.011-.003.008-.031.021-.06.032-.085.017-.039.032-.067.032-.067h-.004c-.01.001-.038.007-.077.013-.031.006-.063.01-.095.013-.006,0-.01.001-.015.001-.024.003-.047.004-.071.004-.081.004-.163-.001-.221-.024t-.001-.001h.001c.007-.045.027-.078.043-.101.01-.014.02-.024.02-.024-.01.004-.02.001-.029.003h-.003c-.018.001-.043.003-.073.004h-.001s-.001,0-.001.001c-.024,0-.049.001-.075.003h-.063c-.017,0-.034,0-.05-.001-.021,0-.042-.001-.06-.004h-.004c-.031-.003-.057-.008-.08-.014,0-.001-.001-.001-.001-.001.004-.013.008-.027.014-.039.017-.042.038-.078.038-.078,0,0-.126.014-.236.001-.036-.004-.071-.011-.099-.024.013-.038.036-.088.036-.088-.001,0-.021.003-.049.004-.034.003-.07.003-.105.001l-.038-.004s-.008,0-.013-.001c-.021-.003-.039-.008-.056-.015-.001-.001-.004-.001-.006-.001-.006-.003-.011-.007-.015-.01.003-.008.007-.02.013-.031.007-.015.015-.031.018-.038-.011.008-.053.042-.114.042-.015,0-.031-.003-.047-.007-.043-.011-.114-.035-.184-.059-.024-.008-.047-.017-.071-.024-.008-.004-.017-.007-.024-.008-.035-.013-.071-.025-.106-.038.068-.022.137-.047.207-.071.068-.022.137-.045.179-.057.087-.024.149.025.162.036,0-.001,0-.003-.001-.004-.007-.014-.024-.046-.029-.066.004-.003.01-.006.015-.008.001-.001.004-.001.007-.001.015-.007.034-.013.054-.015.006-.001.011-.001.017-.003.011-.001.022-.003.034-.003.035-.003.071-.001.106.001.028.001.046.003.047.003,0,0-.024-.049-.036-.088.014-.006.029-.01.046-.014.119-.027.289-.007.289-.007,0,0-.008-.015-.02-.036h0s0-.003-.001-.003c-.01-.022-.022-.05-.031-.08.038-.011.092-.017.149-.02h.042c.02-.001.038,0,.056,0h.007c.066.001.124.006.158.008.01,0,.02-.001.029.003,0,0-.011-.013-.024-.031l-.004-.004s-.001-.003-.001-.004c-.014-.022-.028-.052-.035-.087h.001c.056-.024.14-.028.222-.025.022.001.043.003.064.004.01.001.02.003.029.003.029.004.056.007.084.011.045.007.075.013.082.014h.001s-.013-.027-.029-.061c-.011-.027-.025-.059-.035-.092.042-.013.102-.014.166-.008.029.001.059.006.088.01.131.018.254.05.254.05,0,0-.011-.021-.027-.047-.01-.017-.02-.036-.028-.056-.011-.024-.022-.049-.028-.07.077-.02.179-.006.271.018.126.031.233.078.233.078,0,0-.05-.087-.053-.172.123-.01.262.022.369.053.087.027.151.052.158.054-.004-.008-.027-.042-.045-.087-.01-.025-.018-.052-.021-.081.229-.017.501.116.535.131-.008-.013-.043-.06-.066-.123-.008-.024-.015-.05-.017-.077h0c.119-.004.229.021.321.052l.013.004h.001c.145.053.244.123.258.133-.006-.01-.031-.047-.054-.094-.02-.039-.039-.084-.043-.123.355.014.565.233.565.235,0,0-.034-.073-.035-.152-.029-.01-.053-.02-.078-.032-.003-.001-.006-.003-.008-.004-.018-.008-.038-.02-.061-.031-.006-.003-.011-.006-.015-.008.02-.038.06-.074.102-.102.071-.049.147-.08.148-.08-.003,0-.511.04-.839-.089-.047-.02-.091-.042-.128-.067.073-.101.201-.18.201-.18,0,0-.137.032-.323.032-.105,0-.225-.011-.345-.043-.092-.024-.183-.061-.267-.116.004-.013.01-.025.015-.038.038-.08.105-.142.149-.177.028-.022.047-.034.049-.035-.003.001-.447.106-.903-.166.088-.105.302-.191.304-.193-.003.001-.184.013-.417-.039-.152-.035-.325-.096-.486-.205h0c.007-.01.015-.02.024-.028.006-.006.01-.013.015-.018h.001c.028-.028.059-.05.088-.07.075-.047.142-.068.142-.068,0,0-.113-.013-.262-.047-.085-.021-.18-.049-.275-.088-.088-.035-.173-.08-.246-.135.089-.105.222-.158.223-.158-.003,0-.41-.071-.693-.251-.021-.014-.04-.028-.06-.042.027-.038.061-.071.095-.098.059-.047.112-.074.112-.074,0,0-.519-.084-.711-.292.049-.04.124-.085.179-.114.038-.02.066-.034.066-.034,0,0-.191-.063-.377-.152-.123-.059-.244-.128-.303-.2.021-.017.042-.032.063-.047.074-.052.144-.091.144-.091h-.001s-.018-.008-.045-.02c-.123-.05-.262-.117-.381-.2-.077-.052-.147-.109-.186-.166h0c.035-.039.075-.064.109-.08.04-.02.071-.027.071-.027-.014-.003-.025-.014-.039-.021h-.001c-.024-.014-.059-.032-.098-.056h-.001c-.031-.018-.064-.038-.099-.06-.006-.003-.011-.006-.017-.01-.021-.013-.043-.027-.064-.04-.018-.013-.038-.025-.056-.038-.027-.02-.053-.039-.078-.059h0c-.038-.031-.068-.06-.091-.087.066-.06.161-.106.161-.106,0,0-.113-.057-.223-.135-.071-.049-.141-.108-.18-.166.047-.038.117-.08.117-.08,0,0-.028-.014-.066-.036-.045-.024-.089-.052-.131-.084-.014-.01-.027-.021-.04-.032-.006-.004-.013-.01-.018-.014-.022-.021-.042-.043-.056-.064-.003-.004-.006-.006-.008-.008-.004-.008-.007-.017-.011-.024.031-.025.101-.064.101-.064,0,0-.053.011-.119-.008-.038-.011-.081-.034-.119-.075h0c-.043-.05-.112-.134-.177-.219-.068-.085-.134-.172-.202-.257h.001s.004.001.006.001c.103.027.207.052.31.077.103.027.207.054.269.074h.003c.029.01.053.024.074.038.08.059.101.145.101.145,0,0,.001-.008.001-.02.003-.025.008-.068.014-.095.001-.001.001-.003.001-.003.008,0,.018-.001.027.001.003,0,.007.001.011.003.025.004.052.013.081.025.008.004.015.008.024.013.014.007.028.014.042.022.047.025.092.056.134.088.034.025.056.043.056.043,0,0,.01-.082.025-.141.015.003.031.008.046.013.047.015.098.038.147.066.13.073.247.169.247.169,0,0,.004-.106.031-.191.057.017.13.053.204.098l.054.034c.022.014.045.029.067.045.004.003.008.004.011.007.035.024.068.047.098.07.036.027.068.05.091.067h.001c.011.01.027.015.035.028,0,0-.006-.024-.006-.059v-.011c0-.039.007-.089.028-.138.068.013.149.053.228.102.123.075.24.175.336.265.024.022.038.036.038.036,0,0,.004-.049.015-.113.006-.04.015-.088.028-.133.219.061.598.479.598.479,0,0,.006-.182.036-.285.099.034.201.116.29.205l.003.003s.007.007.01.011c.145.148.253.311.253.313,0-.001.003-.066.024-.14.01-.04.025-.082.049-.12.114.063.225.159.317.254.152.158.256.313.257.314,0-.001-.007-.145.053-.268.008.004.015.008.022.014.152.089.285.232.381.355.101.128.162.236.162.236,0,0-.004-.045,0-.108.004-.056.017-.124.046-.188.004-.008.007-.018.013-.027.423.26.592.726.592.726,0,0-.003-.074.006-.159.007-.067.02-.142.046-.197.081.057.151.12.209.183.254.275.31.571.31.572,0-.001.006-.049.027-.109.021-.06.056-.133.114-.186.194.123.32.324.395.493.075.17.102.309.102.309,0,0,.02-.151.082-.257.314.188.536.82.536.82,0,0-.001-.049.004-.11.007-.066.022-.145.06-.193l.025.021c.015.011.028.022.04.032l.008.008c.039.032.068.061.124.131h0c.035.045.064.089.091.134.01.017.018.032.027.049.02.035.038.07.052.105.013.028.024.056.035.085.01.025.018.05.025.074.008.028.017.056.024.084.024.088.031.147.031.147.001,0,.013-.031.039-.067.02-.028.046-.059.081-.081.011-.008.024-.015.036-.021t.001.003c.092.096.162.204.214.306.003.004.006.008.007.013.004.007.007.014.01.021.085-.032.183-.004.226.011.01.004.018.007.022.008-.007-.006-.073-.06-.156-.155-.074-.082-.141-.172-.2-.265-.007-.013-.015-.024-.022-.036-.006-.01-.01-.018-.015-.027-.068-.12-.128-.258-.166-.412.067-.046.148-.054.204-.053.04.001.068.006.068.006-.001-.001-.022-.018-.054-.05-.193-.183-.359-.43-.441-.679-.035-.102-.046-.151-.053-.209,0-.004-.001-.008-.001-.013-.003-.022-.006-.047-.008-.077,0-.008-.003-.017-.003-.025.008-.001.017,0,.025,0,.137.004.32.131.321.131-.001-.001-.24-.313-.378-.649-.054-.135-.095-.275-.095-.402v-.024c.137.007.289.075.31.084-.032-.032-.325-.33-.438-.722-.027-.095-.043-.195-.042-.3.031-.008.063-.011.094-.011.144-.006.278.054.295.061-.025-.024-.307-.31-.395-.789-.013-.071-.022-.147-.025-.226.163.02.391.18.392.18-.001-.001-.359-.475-.343-1.069.099.007.191.047.257.084.056.031.094.06.103.067-.008-.017-.154-.31-.215-.634-.02-.109-.031-.222-.022-.33.025.003.049.008.073.015.131.035.232.106.232.106,0-.001-.226-.528-.197-.948.091.003.18.035.24.061.042.018.068.035.068.035,0,0-.256-.579-.172-.906h.001c.057.017.127.05.187.081.067.035.121.067.121.068,0-.001-.11-.42-.113-.722v-.022c.001-.066.007-.124.022-.17.102.032.205.082.251.105.014.007.021.011.022.011,0-.007-.006-.029-.011-.061-.028-.156-.052-.339-.046-.511.001-.11.014-.216.046-.295h0c.133.021.223.112.225.113-.007-.017-.004-.036-.006-.053v-.006c-.003-.031-.006-.074-.008-.123v-.008s-.001-.006-.001-.008c-.001-.04-.003-.084-.004-.13,0-.01-.001-.02-.001-.028v-.087c0-.029,0-.057.001-.085.001-.039.004-.078.008-.113v-.004c.006-.056.014-.105.027-.145h0c.103.027.212.092.212.092,0,0-.008-.077-.011-.18-.004-.133.003-.31.05-.423.031.01.064.024.092.036.038.015.066.029.066.029,0,0-.004-.039-.008-.096-.001-.021-.001-.04-.001-.063,0-.003,0-.007-.001-.01,0-.035,0-.068.003-.103.001-.029.004-.057.008-.085v-.007c.007-.042.017-.081.032-.113.001-.001.003-.004.003-.006.004-.007.008-.015.013-.021.027.008.066.028.095.042.015.007.027.014.032.017-.001-.004-.003-.007-.006-.01-.022-.027-.08-.108-.073-.221.001-.02.006-.04.011-.063.021-.077.064-.205.106-.331.042-.12.084-.24.124-.362.001.003.001.004.003.007.04.119.082.237.123.356.043.126.084.253.106.33.003.013.004.024.006.035.022.14-.056.237-.073.258.013-.007.067-.036.108-.052.007-.003.013-.006.02-.007.004.008.011.017.015.027h0c.015.032.025.071.031.113.001.003.001.004.001.007.004.028.007.057.008.085.001.034.003.067.001.101v.014c0,.021-.001.04-.003.061-.003.056-.007.094-.007.096,0,0,.088-.043.158-.066.054.128.054.336.049.472-.004.077-.01.131-.01.131,0,0,.017-.01.043-.024.042-.022.106-.053.168-.07.014.04.022.092.028.148h0c.004.038.007.078.008.119,0,.027.001.052.001.078,0,.032,0,.066-.001.096v.017c-.003.116-.01.221-.015.281,0,.018.003.036-.004.052h0s.092-.091.225-.113c.032.08.045.186.046.299.004.169-.018.348-.046.504-.006.035-.011.059-.011.066.007-.003.035-.018.074-.036.053-.025.127-.056.2-.08.013.042.02.095.021.154.008.302-.112.758-.112.76.001,0,.184-.112.309-.148.029.112.018.253-.008.391-.05.256-.155.498-.161.514.008-.006.043-.024.091-.043.059-.024.137-.049.215-.052.029.406-.18.91-.194.947.017-.011.148-.101.303-.12.001.018.001.038.001.056.007.412-.226.878-.24.908.02-.015.18-.137.362-.151.003.11-.007.216-.025.317-.064.349-.228.619-.292.713-.015.025-.027.039-.027.039.001-.001.119-.082.244-.135.05-.022.101-.039.147-.045-.001.05-.007.099-.013.147-.022.166-.067.31-.12.433-.119.271-.276.426-.286.436.021-.008.215-.096.388-.05.006.531-.441.982-.48,1.022.008-.004.046-.021.099-.039.06-.02.137-.042.211-.045.008.222-.113.494-.235.709-.112.197-.222.345-.237.364.018-.013.195-.131.325-.131.007,0,.013.001.02.001-.001.004-.001.01-.003.015-.003.035-.006.064-.008.089-.001.003-.001.006-.001.008-.008.06-.02.109-.053.211-.082.249-.249.496-.443.68-.031.029-.049.045-.052.047h-.001s.155-.028.269.047h.001c-.036.155-.096.293-.165.412-.006.01-.011.02-.017.028-.007.011-.014.022-.021.034-.059.096-.126.187-.201.269-.089.099-.158.155-.158.155,0,0,.095-.043.191-.035.001.001.004.001.006.001.004-.01.008-.018.014-.028.001-.003.003-.007.006-.011.05-.105.119-.214.209-.313.014.006.025.013.036.02.082.052.123.147.123.147.001-.003.007-.06.028-.147.007-.029.015-.057.024-.085.007-.024.015-.049.024-.075.011-.028.021-.056.032-.084.015-.035.032-.071.052-.108.008-.015.015-.031.024-.046.027-.047.057-.094.092-.138.053-.07.082-.101.119-.133.004-.004.008-.007.013-.011.011-.008.022-.02.036-.031.008-.007.017-.014.025-.021.028.034.045.085.054.135v.004c.017.082.015.161.015.162,0-.001.091-.272.242-.514.078-.127.173-.247.281-.314h.001c.042.07.066.159.077.211.006.027.01.045.01.045,0-.001.029-.166.117-.356.034-.071.074-.148.127-.221.001-.001.003-.004.004-.006.05-.067.108-.131.177-.186.018-.014.036-.029.057-.042.119.103.145.292.145.293,0,0,.004-.024.015-.063.003-.011.006-.022.01-.035.007-.018.013-.039.022-.061.06-.159.19-.409.459-.605.061.121.057.353.057.353,0,0,.04-.117.133-.267.092-.151.237-.334.448-.468.08.141.063.32.063.321.001-.001.198-.357.472-.558.028-.021.054-.039.084-.056.063.123.057.267.057.267.001,0,.066-.101.169-.223.103-.121.243-.267.397-.353.067.109.077.258.077.258,0-.001.07-.113.173-.236.103-.123.24-.257.373-.304.025.078.036.2.039.254.001.018.001.029.001.029,0,0,.094-.106.214-.219.12-.114.268-.237.377-.269.024.081.038.169.043.215.003.018.004.029.004.029l.038-.038c.095-.092.209-.193.33-.268.078-.052.158-.092.228-.106.025.054.031.11.031.149,0,.034-.004.057-.004.057.008-.011.021-.018.032-.027.04-.031.112-.087.193-.144,0-.001.001-.001.001-.001.025-.018.05-.035.075-.052.015-.01.032-.021.049-.031.074-.046.147-.085.204-.102.028.084.034.188.034.19,0,0,.021-.018.053-.042.084-.066.253-.187.383-.212.001.006.003.011.004.015.014.056.024.124.024.124,0,0,.024-.02.059-.046.04-.032.082-.061.127-.088.017-.008.032-.017.049-.025.006-.003.013-.007.018-.01.028-.014.056-.022.081-.027.004-.001.007-.003.011-.004.008-.001.018-.001.027-.001.001.007.003.015.006.024.004.022.007.046.01.066.001.017.003.028.003.028,0,0,.022-.106.123-.163.014-.008.031-.015.049-.022h.001c.061-.021.166-.05.271-.078.105-.028.209-.056.313-.084h.001l-.006.006Z" fill="#fff"/>
  <polygon points="36.433 26.365 36.433 26.807 26.807 36.433 13.193 36.433 3.567 26.807 3.567 26.365 36.433 26.365" fill="#231f20"/>
  <g>
    <path d="M13.219,29.329h-1.363v-1.438h4.173v1.438h-1.363v4.516h-1.446v-4.516Z" fill="#fff"/>
    <path d="M20.086,31.312h-1.848v2.533h-1.447v-5.953h1.447v1.989h1.848v-1.989h1.455v5.953h-1.455v-2.533Z" fill="#fff"/>
    <path d="M26.92,31.654l1.146.844c-.744.995-1.622,1.431-2.592,1.431-1.706,0-3.103-1.396-3.103-3.103s1.396-3.094,3.103-3.094c.986,0,1.881.46,2.625,1.455l-1.162.853c-.468-.627-.944-.878-1.463-.878-.929,0-1.664.744-1.664,1.664,0,.928.735,1.664,1.664,1.664.519,0,.979-.218,1.446-.836Z" fill="#fff"/>
  </g>
  <path d="M26.967,36.819h-13.934l-.113-.113L3.181,26.967v-13.934L13.033,3.181h13.934l9.853,9.852v13.934l-.113.113-9.739,9.739ZM13.353,36.047h13.293l9.4-9.4v-13.293L26.646,3.953h-13.293L3.953,13.353v13.293l9.4,9.4Z" fill="#fff"/>
</svg>